# xmcd
#
# Track frame offsets:
#        150
#        13217
#        38705
#        52610
#        66082
#        87042
#        113892
#        131330
#        142880
#        163260
#        184872
#
# Disc length: 2629 seconds
#
# Revision: 3
# Processed by: cddbd v1.5.1PL0 Copyright (c) Steve Scherf et al.
# Submitted via: ExactAudioCopy v0.95a5
#
DISCID=890a430b
DTITLE=The Surfers - Songs From The Pipe
DYEAR=1900
DGENRE=rock
TTITLE0=Australia
TTITLE1=Never
TTITLE2=If
TTITLE3=Cause It's Me
TTITLE4=Going
TTITLE5=Note Your Slave
TTITLE6=Spill
TTITLE7=Alone By A Tree
TTITLE8=Hawaii
TTITLE9=Anything From You
TTITLE10=Two Gether
EXTD=
EXTT0=
EXTT1=
EXTT2=
EXTT3=
EXTT4=
EXTT5=
EXTT6=
EXTT7=
EXTT8=
EXTT9=
EXTT10=
PLAYORDER=
